<svg height="10110" width="720" xmlns="http://www.w3.org/2000/svg">
<rect height="10110" fill="#555" width="720"></rect>
<text fill="#7f7" font-family="Courier New" font-size="12" xml:space="preserve">
<tspan x="10" y="26">71 megabytes installed</tspan>
<tspan x="10" y="42"></tspan>
<tspan x="10" y="58">node_modules</tspan>
<tspan x="10" y="74">└─┬ atmo@0.14.2 </tspan>
<tspan x="10" y="90">  ├─┬ apollo-server@0.1.5 </tspan>
<tspan x="10" y="106">  │ ├── apollo-tracer@0.1.4 </tspan>
<tspan x="10" y="122">  │ ├─┬ babel-polyfill@6.23.0 </tspan>
<tspan x="10" y="138">  │ │ ├── core-js@2.4.1 </tspan>
<tspan x="10" y="154">  │ │ └── regenerator-runtime@0.10.3 </tspan>
<tspan x="10" y="170">  │ ├─┬ express-widgetizer@0.5.11 </tspan>
<tspan x="10" y="186">  │ │ └── http-errors@1.3.1 </tspan>
<tspan x="10" y="202">  │ ├── fs@0.0.2 </tspan>
<tspan x="10" y="218">  │ ├─┬ graphql-tools@0.6.6 </tspan>
<tspan x="10" y="234">  │ │ └── lodash.uniq@4.5.0 </tspan>
<tspan x="10" y="250">  │ ├── UNMET PEER DEPENDENCY graphql-typings@^0.0.1-beta-2</tspan>
<tspan x="10" y="266">  │ ├── lodash@4.17.4 </tspan>
<tspan x="10" y="282">  │ ├── node-uuid@1.4.8 </tspan>
<tspan x="10" y="298">  │ ├── performance-now@0.2.0 </tspan>
<tspan x="10" y="314">  │ └─┬ request@2.81.0 </tspan>
<tspan x="10" y="330">  │   ├── aws-sign2@0.6.0 </tspan>
<tspan x="10" y="346">  │   ├── aws4@1.6.0 </tspan>
<tspan x="10" y="362">  │   ├── caseless@0.12.0 </tspan>
<tspan x="10" y="378">  │   ├─┬ combined-stream@1.0.5 </tspan>
<tspan x="10" y="394">  │   │ └── delayed-stream@1.0.0 </tspan>
<tspan x="10" y="410">  │   ├── extend@3.0.0 </tspan>
<tspan x="10" y="426">  │   ├── forever-agent@0.6.1 </tspan>
<tspan x="10" y="442">  │   ├─┬ form-data@2.1.4 </tspan>
<tspan x="10" y="458">  │   │ └── asynckit@0.4.0 </tspan>
<tspan x="10" y="474">  │   ├─┬ har-validator@4.2.1 </tspan>
<tspan x="10" y="490">  │   │ ├─┬ ajv@4.11.7 </tspan>
<tspan x="10" y="506">  │   │ │ ├── co@4.6.0 </tspan>
<tspan x="10" y="522">  │   │ │ └─┬ json-stable-stringify@1.0.1 </tspan>
<tspan x="10" y="538">  │   │ │   └── jsonify@0.0.0 </tspan>
<tspan x="10" y="554">  │   │ └── har-schema@1.0.5 </tspan>
<tspan x="10" y="570">  │   ├─┬ hawk@3.1.3 </tspan>
<tspan x="10" y="586">  │   │ ├── boom@2.10.1 </tspan>
<tspan x="10" y="602">  │   │ ├── cryptiles@2.0.5 </tspan>
<tspan x="10" y="618">  │   │ ├── hoek@2.16.3 </tspan>
<tspan x="10" y="634">  │   │ └── sntp@1.0.9 </tspan>
<tspan x="10" y="650">  │   ├─┬ http-signature@1.1.1 </tspan>
<tspan x="10" y="666">  │   │ ├── assert-plus@0.2.0 </tspan>
<tspan x="10" y="682">  │   │ ├─┬ jsprim@1.4.0 </tspan>
<tspan x="10" y="698">  │   │ │ ├── assert-plus@1.0.0 </tspan>
<tspan x="10" y="714">  │   │ │ ├── extsprintf@1.0.2 </tspan>
<tspan x="10" y="730">  │   │ │ ├── json-schema@0.2.3 </tspan>
<tspan x="10" y="746">  │   │ │ └── verror@1.3.6 </tspan>
<tspan x="10" y="762">  │   │ └─┬ sshpk@1.13.0 </tspan>
<tspan x="10" y="778">  │   │   ├── asn1@0.2.3 </tspan>
<tspan x="10" y="794">  │   │   ├── assert-plus@1.0.0 </tspan>
<tspan x="10" y="810">  │   │   ├── bcrypt-pbkdf@1.0.1 </tspan>
<tspan x="10" y="826">  │   │   ├─┬ dashdash@1.14.1 </tspan>
<tspan x="10" y="842">  │   │   │ └── assert-plus@1.0.0 </tspan>
<tspan x="10" y="858">  │   │   ├── ecc-jsbn@0.1.1 </tspan>
<tspan x="10" y="874">  │   │   ├─┬ getpass@0.1.7 </tspan>
<tspan x="10" y="890">  │   │   │ └── assert-plus@1.0.0 </tspan>
<tspan x="10" y="906">  │   │   ├── jodid25519@1.0.2 </tspan>
<tspan x="10" y="922">  │   │   ├── jsbn@0.1.1 </tspan>
<tspan x="10" y="938">  │   │   └── tweetnacl@0.14.5 </tspan>
<tspan x="10" y="954">  │   ├── is-typedarray@1.0.0 </tspan>
<tspan x="10" y="970">  │   ├── isstream@0.1.2 </tspan>
<tspan x="10" y="986">  │   ├── json-stringify-safe@5.0.1 </tspan>
<tspan x="10" y="1002">  │   ├─┬ mime-types@2.1.15 </tspan>
<tspan x="10" y="1018">  │   │ └── mime-db@1.27.0 </tspan>
<tspan x="10" y="1034">  │   ├── oauth-sign@0.8.2 </tspan>
<tspan x="10" y="1050">  │   ├── safe-buffer@5.0.1 </tspan>
<tspan x="10" y="1066">  │   ├── stringstream@0.0.5 </tspan>
<tspan x="10" y="1082">  │   ├─┬ tough-cookie@2.3.2 </tspan>
<tspan x="10" y="1098">  │   │ └── punycode@1.4.1 </tspan>
<tspan x="10" y="1114">  │   ├── tunnel-agent@0.6.0 </tspan>
<tspan x="10" y="1130">  │   └── uuid@3.0.1 </tspan>
<tspan x="10" y="1146">  ├─┬ atmo-gen-expressjs-es5@0.1.0 </tspan>
<tspan x="10" y="1162">  │ └── mustache@2.3.0 </tspan>
<tspan x="10" y="1178">  ├─┬ body-parser@1.15.2 </tspan>
<tspan x="10" y="1194">  │ ├── bytes@2.4.0 </tspan>
<tspan x="10" y="1210">  │ ├── content-type@1.0.2 </tspan>
<tspan x="10" y="1226">  │ ├─┬ debug@2.2.0 </tspan>
<tspan x="10" y="1242">  │ │ └── ms@0.7.1 </tspan>
<tspan x="10" y="1258">  │ ├── depd@1.1.0 </tspan>
<tspan x="10" y="1274">  │ ├─┬ http-errors@1.5.1 </tspan>
<tspan x="10" y="1290">  │ │ ├── inherits@2.0.3 </tspan>
<tspan x="10" y="1306">  │ │ └── setprototypeof@1.0.2 </tspan>
<tspan x="10" y="1322">  │ ├── iconv-lite@0.4.13 </tspan>
<tspan x="10" y="1338">  │ ├─┬ on-finished@2.3.0 </tspan>
<tspan x="10" y="1354">  │ │ └── ee-first@1.1.1 </tspan>
<tspan x="10" y="1370">  │ ├── qs@6.2.0 </tspan>
<tspan x="10" y="1386">  │ ├─┬ raw-body@2.1.7 </tspan>
<tspan x="10" y="1402">  │ │ └── unpipe@1.0.0 </tspan>
<tspan x="10" y="1418">  │ └─┬ type-is@1.6.15 </tspan>
<tspan x="10" y="1434">  │   └── media-typer@0.3.0 </tspan>
<tspan x="10" y="1450">  ├─┬ chalk@1.1.3 </tspan>
<tspan x="10" y="1466">  │ ├── ansi-styles@2.2.1 </tspan>
<tspan x="10" y="1482">  │ ├── escape-string-regexp@1.0.5 </tspan>
<tspan x="10" y="1498">  │ ├─┬ has-ansi@2.0.0 </tspan>
<tspan x="10" y="1514">  │ │ └── ansi-regex@2.1.1 </tspan>
<tspan x="10" y="1530">  │ ├── strip-ansi@3.0.1 </tspan>
<tspan x="10" y="1546">  │ └── supports-color@2.0.0 </tspan>
<tspan x="10" y="1562">  ├─┬ express@4.15.2 </tspan>
<tspan x="10" y="1578">  │ ├─┬ accepts@1.3.3 </tspan>
<tspan x="10" y="1594">  │ │ └── negotiator@0.6.1 </tspan>
<tspan x="10" y="1610">  │ ├── array-flatten@1.1.1 </tspan>
<tspan x="10" y="1626">  │ ├── content-disposition@0.5.2 </tspan>
<tspan x="10" y="1642">  │ ├── cookie@0.3.1 </tspan>
<tspan x="10" y="1658">  │ ├── cookie-signature@1.0.6 </tspan>
<tspan x="10" y="1674">  │ ├─┬ debug@2.6.1 </tspan>
<tspan x="10" y="1690">  │ │ └── ms@0.7.2 </tspan>
<tspan x="10" y="1706">  │ ├── encodeurl@1.0.1 </tspan>
<tspan x="10" y="1722">  │ ├── escape-html@1.0.3 </tspan>
<tspan x="10" y="1738">  │ ├── etag@1.8.0 </tspan>
<tspan x="10" y="1754">  │ ├─┬ finalhandler@1.0.2 </tspan>
<tspan x="10" y="1770">  │ │ └─┬ debug@2.6.4 </tspan>
<tspan x="10" y="1786">  │ │   └── ms@0.7.3 </tspan>
<tspan x="10" y="1802">  │ ├── fresh@0.5.0 </tspan>
<tspan x="10" y="1818">  │ ├── merge-descriptors@1.0.1 </tspan>
<tspan x="10" y="1834">  │ ├── methods@1.1.2 </tspan>
<tspan x="10" y="1850">  │ ├── parseurl@1.3.1 </tspan>
<tspan x="10" y="1866">  │ ├── path-to-regexp@0.1.7 </tspan>
<tspan x="10" y="1882">  │ ├─┬ proxy-addr@1.1.4 </tspan>
<tspan x="10" y="1898">  │ │ ├── forwarded@0.1.0 </tspan>
<tspan x="10" y="1914">  │ │ └── ipaddr.js@1.3.0 </tspan>
<tspan x="10" y="1930">  │ ├── qs@6.4.0 </tspan>
<tspan x="10" y="1946">  │ ├── range-parser@1.2.0 </tspan>
<tspan x="10" y="1962">  │ ├─┬ send@0.15.1 </tspan>
<tspan x="10" y="1978">  │ │ ├── debug@2.6.1 </tspan>
<tspan x="10" y="1994">  │ │ ├── destroy@1.0.4 </tspan>
<tspan x="10" y="2010">  │ │ ├─┬ http-errors@1.6.1 </tspan>
<tspan x="10" y="2026">  │ │ │ └── setprototypeof@1.0.3 </tspan>
<tspan x="10" y="2042">  │ │ ├── mime@1.3.4 </tspan>
<tspan x="10" y="2058">  │ │ └── ms@0.7.2 </tspan>
<tspan x="10" y="2074">  │ ├── serve-static@1.12.1 </tspan>
<tspan x="10" y="2090">  │ ├── setprototypeof@1.0.3 </tspan>
<tspan x="10" y="2106">  │ ├── statuses@1.3.1 </tspan>
<tspan x="10" y="2122">  │ ├── utils-merge@1.0.0 </tspan>
<tspan x="10" y="2138">  │ └── vary@1.1.1 </tspan>
<tspan x="10" y="2154">  ├─┬ express-http-proxy@0.7.4 </tspan>
<tspan x="10" y="2170">  │ ├── lodash.iserror@3.1.1 </tspan>
<tspan x="10" y="2186">  │ └─┬ raw-body@1.3.4 </tspan>
<tspan x="10" y="2202">  │   ├── bytes@1.0.0 </tspan>
<tspan x="10" y="2218">  │   └── iconv-lite@0.4.8 </tspan>
<tspan x="10" y="2234">  ├── figlet@1.2.0 </tspan>
<tspan x="10" y="2250">  ├── file-exists@1.0.0 </tspan>
<tspan x="10" y="2266">  ├─┬ graphql@0.5.0 </tspan>
<tspan x="10" y="2282">  │ └── babel-runtime@6.23.0 </tspan>
<tspan x="10" y="2298">  ├─┬ json-server@0.8.23 </tspan>
<tspan x="10" y="2314">  │ ├─┬ chokidar@1.6.1 </tspan>
<tspan x="10" y="2330">  │ │ ├─┬ anymatch@1.3.0 </tspan>
<tspan x="10" y="2346">  │ │ │ ├── arrify@1.0.1 </tspan>
<tspan x="10" y="2362">  │ │ │ └─┬ micromatch@2.3.11 </tspan>
<tspan x="10" y="2378">  │ │ │   ├─┬ arr-diff@2.0.0 </tspan>
<tspan x="10" y="2394">  │ │ │   │ └── arr-flatten@1.0.3 </tspan>
<tspan x="10" y="2410">  │ │ │   ├── array-unique@0.2.1 </tspan>
<tspan x="10" y="2426">  │ │ │   ├─┬ braces@1.8.5 </tspan>
<tspan x="10" y="2442">  │ │ │   │ ├─┬ expand-range@1.8.2 </tspan>
<tspan x="10" y="2458">  │ │ │   │ │ └─┬ fill-range@2.2.3 </tspan>
<tspan x="10" y="2474">  │ │ │   │ │   ├── is-number@2.1.0 </tspan>
<tspan x="10" y="2490">  │ │ │   │ │   ├── isobject@2.1.0 </tspan>
<tspan x="10" y="2506">  │ │ │   │ │   ├── randomatic@1.1.6 </tspan>
<tspan x="10" y="2522">  │ │ │   │ │   └── repeat-string@1.6.1 </tspan>
<tspan x="10" y="2538">  │ │ │   │ ├── preserve@0.2.0 </tspan>
<tspan x="10" y="2554">  │ │ │   │ └── repeat-element@1.1.2 </tspan>
<tspan x="10" y="2570">  │ │ │   ├─┬ expand-brackets@0.1.5 </tspan>
<tspan x="10" y="2586">  │ │ │   │ └── is-posix-bracket@0.1.1 </tspan>
<tspan x="10" y="2602">  │ │ │   ├── extglob@0.3.2 </tspan>
<tspan x="10" y="2618">  │ │ │   ├── filename-regex@2.0.0 </tspan>
<tspan x="10" y="2634">  │ │ │   ├─┬ kind-of@3.2.0 </tspan>
<tspan x="10" y="2650">  │ │ │   │ └── is-buffer@1.1.5 </tspan>
<tspan x="10" y="2666">  │ │ │   ├─┬ normalize-path@2.1.1 </tspan>
<tspan x="10" y="2682">  │ │ │   │ └── remove-trailing-separator@1.0.1 </tspan>
<tspan x="10" y="2698">  │ │ │   ├─┬ object.omit@2.0.1 </tspan>
<tspan x="10" y="2714">  │ │ │   │ ├─┬ for-own@0.1.5 </tspan>
<tspan x="10" y="2730">  │ │ │   │ │ └── for-in@1.0.2 </tspan>
<tspan x="10" y="2746">  │ │ │   │ └── is-extendable@0.1.1 </tspan>
<tspan x="10" y="2762">  │ │ │   ├─┬ parse-glob@3.0.4 </tspan>
<tspan x="10" y="2778">  │ │ │   │ ├── glob-base@0.3.0 </tspan>
<tspan x="10" y="2794">  │ │ │   │ └── is-dotfile@1.0.2 </tspan>
<tspan x="10" y="2810">  │ │ │   └─┬ regex-cache@0.4.3 </tspan>
<tspan x="10" y="2826">  │ │ │     ├── is-equal-shallow@0.1.3 </tspan>
<tspan x="10" y="2842">  │ │ │     └── is-primitive@2.0.0 </tspan>
<tspan x="10" y="2858">  │ │ ├── async-each@1.0.1 </tspan>
<tspan x="10" y="2874">  │ │ ├── glob-parent@2.0.0 </tspan>
<tspan x="10" y="2890">  │ │ ├─┬ is-binary-path@1.0.1 </tspan>
<tspan x="10" y="2906">  │ │ │ └── binary-extensions@1.8.0 </tspan>
<tspan x="10" y="2922">  │ │ ├─┬ is-glob@2.0.1 </tspan>
<tspan x="10" y="2938">  │ │ │ └── is-extglob@1.0.0 </tspan>
<tspan x="10" y="2954">  │ │ ├── path-is-absolute@1.0.1 </tspan>
<tspan x="10" y="2970">  │ │ └─┬ readdirp@2.1.0 </tspan>
<tspan x="10" y="2986">  │ │   ├─┬ minimatch@3.0.3 </tspan>
<tspan x="10" y="3002">  │ │   │ └─┬ brace-expansion@1.1.7 </tspan>
<tspan x="10" y="3018">  │ │   │   ├── balanced-match@0.4.2 </tspan>
<tspan x="10" y="3034">  │ │   │   └── concat-map@0.0.1 </tspan>
<tspan x="10" y="3050">  │ │   ├─┬ readable-stream@2.2.9 </tspan>
<tspan x="10" y="3066">  │ │   │ ├── buffer-shims@1.0.0 </tspan>
<tspan x="10" y="3082">  │ │   │ ├── core-util-is@1.0.2 </tspan>
<tspan x="10" y="3098">  │ │   │ ├── isarray@1.0.0 </tspan>
<tspan x="10" y="3114">  │ │   │ ├── process-nextick-args@1.0.7 </tspan>
<tspan x="10" y="3130">  │ │   │ ├── string_decoder@1.0.0 </tspan>
<tspan x="10" y="3146">  │ │   │ └── util-deprecate@1.0.2 </tspan>
<tspan x="10" y="3162">  │ │   └── set-immediate-shim@1.0.1 </tspan>
<tspan x="10" y="3178">  │ ├─┬ compression@1.6.2 </tspan>
<tspan x="10" y="3194">  │ │ ├── bytes@2.3.0 </tspan>
<tspan x="10" y="3210">  │ │ └── compressible@2.0.10 </tspan>
<tspan x="10" y="3226">  │ ├── connect-pause@0.1.0 </tspan>
<tspan x="10" y="3242">  │ ├── cors@2.8.3 </tspan>
<tspan x="10" y="3258">  │ ├── errorhandler@1.5.0 </tspan>
<tspan x="10" y="3274">  │ ├─┬ lowdb@0.13.1 </tspan>
<tspan x="10" y="3290">  │ │ ├── is-promise@2.1.0 </tspan>
<tspan x="10" y="3306">  │ │ ├─┬ json-parse-helpfulerror@1.0.3 </tspan>
<tspan x="10" y="3322">  │ │ │ └── jju@1.3.0 </tspan>
<tspan x="10" y="3338">  │ │ └── steno@0.4.4 </tspan>
<tspan x="10" y="3354">  │ ├─┬ method-override@2.3.8 </tspan>
<tspan x="10" y="3370">  │ │ └─┬ debug@2.6.3 </tspan>
<tspan x="10" y="3386">  │ │   └── ms@0.7.2 </tspan>
<tspan x="10" y="3402">  │ ├── object-assign@4.1.1 </tspan>
<tspan x="10" y="3418">  │ ├── pluralize@3.1.0 </tspan>
<tspan x="10" y="3434">  │ ├── underscore-db@0.10.0 </tspan>
<tspan x="10" y="3450">  │ └─┬ update-notifier@1.0.3 </tspan>
<tspan x="10" y="3466">  │   ├─┬ boxen@0.6.0 </tspan>
<tspan x="10" y="3482">  │   │ ├── ansi-align@1.1.0 </tspan>
<tspan x="10" y="3498">  │   │ ├── camelcase@2.1.1 </tspan>
<tspan x="10" y="3514">  │   │ ├── cli-boxes@1.0.0 </tspan>
<tspan x="10" y="3530">  │   │ ├── filled-array@1.1.0 </tspan>
<tspan x="10" y="3546">  │   │ ├─┬ repeating@2.0.1 </tspan>
<tspan x="10" y="3562">  │   │ │ └── is-finite@1.0.2 </tspan>
<tspan x="10" y="3578">  │   │ └── widest-line@1.0.0 </tspan>
<tspan x="10" y="3594">  │   ├─┬ configstore@2.1.0 </tspan>
<tspan x="10" y="3610">  │   │ ├─┬ dot-prop@3.0.0 </tspan>
<tspan x="10" y="3626">  │   │ │ └── is-obj@1.0.1 </tspan>
<tspan x="10" y="3642">  │   │ ├─┬ mkdirp@0.5.1 </tspan>
<tspan x="10" y="3658">  │   │ │ └── minimist@0.0.8 </tspan>
<tspan x="10" y="3674">  │   │ ├── os-tmpdir@1.0.2 </tspan>
<tspan x="10" y="3690">  │   │ ├── osenv@0.1.4 </tspan>
<tspan x="10" y="3706">  │   │ ├── uuid@2.0.3 </tspan>
<tspan x="10" y="3722">  │   │ └─┬ write-file-atomic@1.3.3 </tspan>
<tspan x="10" y="3738">  │   │   ├── imurmurhash@0.1.4 </tspan>
<tspan x="10" y="3754">  │   │   └── slide@1.1.6 </tspan>
<tspan x="10" y="3770">  │   ├── is-npm@1.0.0 </tspan>
<tspan x="10" y="3786">  │   ├─┬ latest-version@2.0.0 </tspan>
<tspan x="10" y="3802">  │   │ └─┬ package-json@2.4.0 </tspan>
<tspan x="10" y="3818">  │   │   ├─┬ got@5.7.1 </tspan>
<tspan x="10" y="3834">  │   │   │ ├─┬ create-error-class@3.0.2 </tspan>
<tspan x="10" y="3850">  │   │   │ │ └── capture-stack-trace@1.0.0 </tspan>
<tspan x="10" y="3866">  │   │   │ ├── duplexer2@0.1.4 </tspan>
<tspan x="10" y="3882">  │   │   │ ├── is-redirect@1.0.0 </tspan>
<tspan x="10" y="3898">  │   │   │ ├── is-retry-allowed@1.1.0 </tspan>
<tspan x="10" y="3914">  │   │   │ ├── is-stream@1.1.0 </tspan>
<tspan x="10" y="3930">  │   │   │ ├── lowercase-keys@1.0.0 </tspan>
<tspan x="10" y="3946">  │   │   │ ├── node-status-codes@1.0.0 </tspan>
<tspan x="10" y="3962">  │   │   │ ├── read-all-stream@3.1.0 </tspan>
<tspan x="10" y="3978">  │   │   │ ├── timed-out@3.1.3 </tspan>
<tspan x="10" y="3994">  │   │   │ ├── unzip-response@1.0.2 </tspan>
<tspan x="10" y="4010">  │   │   │ └─┬ url-parse-lax@1.0.0 </tspan>
<tspan x="10" y="4026">  │   │   │   └── prepend-http@1.0.4 </tspan>
<tspan x="10" y="4042">  │   │   ├─┬ registry-auth-token@3.3.0 </tspan>
<tspan x="10" y="4058">  │   │   │ └─┬ rc@1.2.1 </tspan>
<tspan x="10" y="4074">  │   │   │   ├── deep-extend@0.4.1 </tspan>
<tspan x="10" y="4090">  │   │   │   ├── ini@1.3.4 </tspan>
<tspan x="10" y="4106">  │   │   │   ├── minimist@1.2.0 </tspan>
<tspan x="10" y="4122">  │   │   │   └── strip-json-comments@2.0.1 </tspan>
<tspan x="10" y="4138">  │   │   └── registry-url@3.1.0 </tspan>
<tspan x="10" y="4154">  │   ├── lazy-req@1.1.0 </tspan>
<tspan x="10" y="4170">  │   ├─┬ semver-diff@2.1.0 </tspan>
<tspan x="10" y="4186">  │   │ └── semver@5.3.0 </tspan>
<tspan x="10" y="4202">  │   └─┬ xdg-basedir@2.0.0 </tspan>
<tspan x="10" y="4218">  │     └── os-homedir@1.0.2 </tspan>
<tspan x="10" y="4234">  ├─┬ jsonfile@2.4.0 </tspan>
<tspan x="10" y="4250">  │ └── graceful-fs@4.1.11 </tspan>
<tspan x="10" y="4266">  ├─┬ morgan@1.8.1 </tspan>
<tspan x="10" y="4282">  │ ├── basic-auth@1.1.0 </tspan>
<tspan x="10" y="4298">  │ ├─┬ debug@2.6.1 </tspan>
<tspan x="10" y="4314">  │ │ └── ms@0.7.2 </tspan>
<tspan x="10" y="4330">  │ └── on-headers@1.0.1 </tspan>
<tspan x="10" y="4346">  ├─┬ npmi@2.0.1 </tspan>
<tspan x="10" y="4362">  │ ├─┬ npm@3.10.10 </tspan>
<tspan x="10" y="4378">  │ │ ├── abbrev@1.0.9 </tspan>
<tspan x="10" y="4394">  │ │ ├── ansi-regex@2.0.0 </tspan>
<tspan x="10" y="4410">  │ │ ├── ansicolors@0.3.2 </tspan>
<tspan x="10" y="4426">  │ │ ├── ansistyles@0.1.3 </tspan>
<tspan x="10" y="4442">  │ │ ├── aproba@1.0.4 </tspan>
<tspan x="10" y="4458">  │ │ ├── archy@1.0.0 </tspan>
<tspan x="10" y="4474">  │ │ ├── asap@2.0.5 </tspan>
<tspan x="10" y="4490">  │ │ ├── chownr@1.0.1 </tspan>
<tspan x="10" y="4506">  │ │ ├── cmd-shim@2.0.2 </tspan>
<tspan x="10" y="4522">  │ │ ├─┬ columnify@1.5.4 </tspan>
<tspan x="10" y="4538">  │ │ │ └─┬ wcwidth@1.0.0 </tspan>
<tspan x="10" y="4554">  │ │ │   └─┬ defaults@1.0.3 </tspan>
<tspan x="10" y="4570">  │ │ │     └── clone@1.0.2 </tspan>
<tspan x="10" y="4586">  │ │ ├─┬ config-chain@1.1.11 </tspan>
<tspan x="10" y="4602">  │ │ │ └── proto-list@1.2.4 </tspan>
<tspan x="10" y="4618">  │ │ ├── debuglog@1.0.1 </tspan>
<tspan x="10" y="4634">  │ │ ├── dezalgo@1.0.3 </tspan>
<tspan x="10" y="4650">  │ │ ├── editor@1.0.0 </tspan>
<tspan x="10" y="4666">  │ │ ├── fs-vacuum@1.2.9 </tspan>
<tspan x="10" y="4682">  │ │ ├── fs-write-stream-atomic@1.0.8 </tspan>
<tspan x="10" y="4698">  │ │ ├── fstream@1.0.10 </tspan>
<tspan x="10" y="4714">  │ │ ├─┬ fstream-npm@1.2.0 </tspan>
<tspan x="10" y="4730">  │ │ │ └─┬ fstream-ignore@1.0.5 </tspan>
<tspan x="10" y="4746">  │ │ │   └─┬ minimatch@3.0.3 </tspan>
<tspan x="10" y="4762">  │ │ │     └─┬ brace-expansion@1.1.6 </tspan>
<tspan x="10" y="4778">  │ │ │       ├── balanced-match@0.4.2 </tspan>
<tspan x="10" y="4794">  │ │ │       └── concat-map@0.0.1 </tspan>
<tspan x="10" y="4810">  │ │ ├─┬ glob@7.1.0 </tspan>
<tspan x="10" y="4826">  │ │ │ ├── fs.realpath@1.0.0 </tspan>
<tspan x="10" y="4842">  │ │ │ ├─┬ minimatch@3.0.3 </tspan>
<tspan x="10" y="4858">  │ │ │ │ └─┬ brace-expansion@1.1.6 </tspan>
<tspan x="10" y="4874">  │ │ │ │   ├── balanced-match@0.4.2 </tspan>
<tspan x="10" y="4890">  │ │ │ │   └── concat-map@0.0.1 </tspan>
<tspan x="10" y="4906">  │ │ │ └── path-is-absolute@1.0.1 </tspan>
<tspan x="10" y="4922">  │ │ ├── graceful-fs@4.1.9 </tspan>
<tspan x="10" y="4938">  │ │ ├── has-unicode@2.0.1 </tspan>
<tspan x="10" y="4954">  │ │ ├── hosted-git-info@2.1.5 </tspan>
<tspan x="10" y="4970">  │ │ ├── iferr@0.1.5 </tspan>
<tspan x="10" y="4986">  │ │ ├── imurmurhash@0.1.4 </tspan>
<tspan x="10" y="5002">  │ │ ├── inflight@1.0.5 </tspan>
<tspan x="10" y="5018">  │ │ ├── inherits@2.0.3 </tspan>
<tspan x="10" y="5034">  │ │ ├── ini@1.3.4 </tspan>
<tspan x="10" y="5050">  │ │ ├─┬ init-package-json@1.9.4 </tspan>
<tspan x="10" y="5066">  │ │ │ ├─┬ glob@6.0.4 </tspan>
<tspan x="10" y="5082">  │ │ │ │ ├─┬ minimatch@3.0.3 </tspan>
<tspan x="10" y="5098">  │ │ │ │ │ └─┬ brace-expansion@1.1.6 </tspan>
<tspan x="10" y="5114">  │ │ │ │ │   ├── balanced-match@0.4.2 </tspan>
<tspan x="10" y="5130">  │ │ │ │ │   └── concat-map@0.0.1 </tspan>
<tspan x="10" y="5146">  │ │ │ │ └── path-is-absolute@1.0.0 </tspan>
<tspan x="10" y="5162">  │ │ │ └── promzard@0.3.0 </tspan>
<tspan x="10" y="5178">  │ │ ├── lockfile@1.0.2 </tspan>
<tspan x="10" y="5194">  │ │ ├── lodash._baseindexof@3.1.0 </tspan>
<tspan x="10" y="5210">  │ │ ├─┬ lodash._baseuniq@4.6.0 </tspan>
<tspan x="10" y="5226">  │ │ │ ├── lodash._createset@4.0.3 </tspan>
<tspan x="10" y="5242">  │ │ │ └── lodash._root@3.0.1 </tspan>
<tspan x="10" y="5258">  │ │ ├── lodash._bindcallback@3.0.1 </tspan>
<tspan x="10" y="5274">  │ │ ├── lodash._cacheindexof@3.0.2 </tspan>
<tspan x="10" y="5290">  │ │ ├── lodash._createcache@3.1.2 </tspan>
<tspan x="10" y="5306">  │ │ ├── lodash._getnative@3.9.1 </tspan>
<tspan x="10" y="5322">  │ │ ├── lodash.clonedeep@4.5.0 </tspan>
<tspan x="10" y="5338">  │ │ ├── lodash.restparam@3.6.1 </tspan>
<tspan x="10" y="5354">  │ │ ├── lodash.union@4.6.0 </tspan>
<tspan x="10" y="5370">  │ │ ├── lodash.uniq@4.5.0 </tspan>
<tspan x="10" y="5386">  │ │ ├── lodash.without@4.4.0 </tspan>
<tspan x="10" y="5402">  │ │ ├─┬ mkdirp@0.5.1 </tspan>
<tspan x="10" y="5418">  │ │ │ └── minimist@0.0.8 </tspan>
<tspan x="10" y="5434">  │ │ ├─┬ node-gyp@3.4.0 </tspan>
<tspan x="10" y="5450">  │ │ │ ├─┬ minimatch@3.0.3 </tspan>
<tspan x="10" y="5466">  │ │ │ │ └─┬ brace-expansion@1.1.6 </tspan>
<tspan x="10" y="5482">  │ │ │ │   ├── balanced-match@0.4.2 </tspan>
<tspan x="10" y="5498">  │ │ │ │   └── concat-map@0.0.1 </tspan>
<tspan x="10" y="5514">  │ │ │ ├─┬ npmlog@3.1.2 </tspan>
<tspan x="10" y="5530">  │ │ │ │ ├─┬ are-we-there-yet@1.1.2 </tspan>
<tspan x="10" y="5546">  │ │ │ │ │ └── delegates@1.0.0 </tspan>
<tspan x="10" y="5562">  │ │ │ │ ├── console-control-strings@1.1.0 </tspan>
<tspan x="10" y="5578">  │ │ │ │ ├─┬ gauge@2.6.0 </tspan>
<tspan x="10" y="5594">  │ │ │ │ │ ├── has-color@0.1.7 </tspan>
<tspan x="10" y="5610">  │ │ │ │ │ ├── object-assign@4.1.0 </tspan>
<tspan x="10" y="5626">  │ │ │ │ │ ├── signal-exit@3.0.0 </tspan>
<tspan x="10" y="5642">  │ │ │ │ │ ├─┬ string-width@1.0.2 </tspan>
<tspan x="10" y="5658">  │ │ │ │ │ │ ├─┬ code-point-at@1.0.0 </tspan>
<tspan x="10" y="5674">  │ │ │ │ │ │ │ └── number-is-nan@1.0.0 </tspan>
<tspan x="10" y="5690">  │ │ │ │ │ │ └─┬ is-fullwidth-code-point@1.0.0 </tspan>
<tspan x="10" y="5706">  │ │ │ │ │ │   └── number-is-nan@1.0.0 </tspan>
<tspan x="10" y="5722">  │ │ │ │ │ └── wide-align@1.1.0 </tspan>
<tspan x="10" y="5738">  │ │ │ │ └── set-blocking@2.0.0 </tspan>
<tspan x="10" y="5754">  │ │ │ └─┬ path-array@1.0.1 </tspan>
<tspan x="10" y="5770">  │ │ │   └─┬ array-index@1.0.0 </tspan>
<tspan x="10" y="5786">  │ │ │     ├─┬ debug@2.2.0 </tspan>
<tspan x="10" y="5802">  │ │ │     │ └── ms@0.7.1 </tspan>
<tspan x="10" y="5818">  │ │ │     └─┬ es6-symbol@3.1.0 </tspan>
<tspan x="10" y="5834">  │ │ │       ├── d@0.1.1 </tspan>
<tspan x="10" y="5850">  │ │ │       └─┬ es5-ext@0.10.12 </tspan>
<tspan x="10" y="5866">  │ │ │         └── es6-iterator@2.0.0 </tspan>
<tspan x="10" y="5882">  │ │ ├── nopt@3.0.6 </tspan>
<tspan x="10" y="5898">  │ │ ├── normalize-git-url@3.0.2 </tspan>
<tspan x="10" y="5914">  │ │ ├─┬ normalize-package-data@2.3.5 </tspan>
<tspan x="10" y="5930">  │ │ │ └─┬ is-builtin-module@1.0.0 </tspan>
<tspan x="10" y="5946">  │ │ │   └── builtin-modules@1.1.1 </tspan>
<tspan x="10" y="5962">  │ │ ├── npm-cache-filename@1.0.2 </tspan>
<tspan x="10" y="5978">  │ │ ├── npm-install-checks@3.0.0 </tspan>
<tspan x="10" y="5994">  │ │ ├── npm-package-arg@4.2.0 </tspan>
<tspan x="10" y="6010">  │ │ ├─┬ npm-registry-client@7.2.1 </tspan>
<tspan x="10" y="6026">  │ │ │ ├─┬ concat-stream@1.5.2 </tspan>
<tspan x="10" y="6042">  │ │ │ │ ├─┬ readable-stream@2.0.6 </tspan>
<tspan x="10" y="6058">  │ │ │ │ │ ├── core-util-is@1.0.2 </tspan>
<tspan x="10" y="6074">  │ │ │ │ │ ├── isarray@1.0.0 </tspan>
<tspan x="10" y="6090">  │ │ │ │ │ ├── process-nextick-args@1.0.7 </tspan>
<tspan x="10" y="6106">  │ │ │ │ │ ├── string_decoder@0.10.31 </tspan>
<tspan x="10" y="6122">  │ │ │ │ │ └── util-deprecate@1.0.2 </tspan>
<tspan x="10" y="6138">  │ │ │ │ └── typedarray@0.0.6 </tspan>
<tspan x="10" y="6154">  │ │ │ ├─┬ npmlog@3.1.2 </tspan>
<tspan x="10" y="6170">  │ │ │ │ ├─┬ are-we-there-yet@1.1.2 </tspan>
<tspan x="10" y="6186">  │ │ │ │ │ └── delegates@1.0.0 </tspan>
<tspan x="10" y="6202">  │ │ │ │ ├── console-control-strings@1.1.0 </tspan>
<tspan x="10" y="6218">  │ │ │ │ ├─┬ gauge@2.6.0 </tspan>
<tspan x="10" y="6234">  │ │ │ │ │ ├── has-color@0.1.7 </tspan>
<tspan x="10" y="6250">  │ │ │ │ │ ├── object-assign@4.1.0 </tspan>
<tspan x="10" y="6266">  │ │ │ │ │ ├── signal-exit@3.0.0 </tspan>
<tspan x="10" y="6282">  │ │ │ │ │ ├─┬ string-width@1.0.2 </tspan>
<tspan x="10" y="6298">  │ │ │ │ │ │ ├─┬ code-point-at@1.0.0 </tspan>
<tspan x="10" y="6314">  │ │ │ │ │ │ │ └── number-is-nan@1.0.0 </tspan>
<tspan x="10" y="6330">  │ │ │ │ │ │ └─┬ is-fullwidth-code-point@1.0.0 </tspan>
<tspan x="10" y="6346">  │ │ │ │ │ │   └── number-is-nan@1.0.0 </tspan>
<tspan x="10" y="6362">  │ │ │ │ │ └── wide-align@1.1.0 </tspan>
<tspan x="10" y="6378">  │ │ │ │ └── set-blocking@2.0.0 </tspan>
<tspan x="10" y="6394">  │ │ │ └── retry@0.10.0 </tspan>
<tspan x="10" y="6410">  │ │ ├── npm-user-validate@0.1.5 </tspan>
<tspan x="10" y="6426">  │ │ ├─┬ npmlog@4.0.0 </tspan>
<tspan x="10" y="6442">  │ │ │ ├─┬ are-we-there-yet@1.1.2 </tspan>
<tspan x="10" y="6458">  │ │ │ │ └── delegates@1.0.0 </tspan>
<tspan x="10" y="6474">  │ │ │ ├── console-control-strings@1.1.0 </tspan>
<tspan x="10" y="6490">  │ │ │ ├─┬ gauge@2.6.0 </tspan>
<tspan x="10" y="6506">  │ │ │ │ ├── has-color@0.1.7 </tspan>
<tspan x="10" y="6522">  │ │ │ │ ├── object-assign@4.1.0 </tspan>
<tspan x="10" y="6538">  │ │ │ │ ├── signal-exit@3.0.0 </tspan>
<tspan x="10" y="6554">  │ │ │ │ ├─┬ string-width@1.0.2 </tspan>
<tspan x="10" y="6570">  │ │ │ │ │ ├─┬ code-point-at@1.0.0 </tspan>
<tspan x="10" y="6586">  │ │ │ │ │ │ └── number-is-nan@1.0.0 </tspan>
<tspan x="10" y="6602">  │ │ │ │ │ └─┬ is-fullwidth-code-point@1.0.0 </tspan>
<tspan x="10" y="6618">  │ │ │ │ │   └── number-is-nan@1.0.0 </tspan>
<tspan x="10" y="6634">  │ │ │ │ └── wide-align@1.1.0 </tspan>
<tspan x="10" y="6650">  │ │ │ └── set-blocking@2.0.0 </tspan>
<tspan x="10" y="6666">  │ │ ├── once@1.4.0 </tspan>
<tspan x="10" y="6682">  │ │ ├── opener@1.4.2 </tspan>
<tspan x="10" y="6698">  │ │ ├─┬ osenv@0.1.3 </tspan>
<tspan x="10" y="6714">  │ │ │ ├── os-homedir@1.0.1 </tspan>
<tspan x="10" y="6730">  │ │ │ └── os-tmpdir@1.0.1 </tspan>
<tspan x="10" y="6746">  │ │ ├── path-is-inside@1.0.2 </tspan>
<tspan x="10" y="6762">  │ │ ├─┬ read@1.0.7 </tspan>
<tspan x="10" y="6778">  │ │ │ └── mute-stream@0.0.5 </tspan>
<tspan x="10" y="6794">  │ │ ├── read-cmd-shim@1.0.1 </tspan>
<tspan x="10" y="6810">  │ │ ├─┬ read-installed@4.0.3 </tspan>
<tspan x="10" y="6826">  │ │ │ └── util-extend@1.0.3 </tspan>
<tspan x="10" y="6842">  │ │ ├─┬ read-package-json@2.0.4 </tspan>
<tspan x="10" y="6858">  │ │ │ ├─┬ glob@6.0.4 </tspan>
<tspan x="10" y="6874">  │ │ │ │ ├─┬ minimatch@3.0.3 </tspan>
<tspan x="10" y="6890">  │ │ │ │ │ └─┬ brace-expansion@1.1.6 </tspan>
<tspan x="10" y="6906">  │ │ │ │ │   ├── balanced-match@0.4.2 </tspan>
<tspan x="10" y="6922">  │ │ │ │ │   └── concat-map@0.0.1 </tspan>
<tspan x="10" y="6938">  │ │ │ │ └── path-is-absolute@1.0.0 </tspan>
<tspan x="10" y="6954">  │ │ │ └─┬ json-parse-helpfulerror@1.0.3 </tspan>
<tspan x="10" y="6970">  │ │ │   └── jju@1.3.0 </tspan>
<tspan x="10" y="6986">  │ │ ├── read-package-tree@5.1.5 </tspan>
<tspan x="10" y="7002">  │ │ ├─┬ readable-stream@2.1.5 </tspan>
<tspan x="10" y="7018">  │ │ │ ├── buffer-shims@1.0.0 </tspan>
<tspan x="10" y="7034">  │ │ │ ├── core-util-is@1.0.2 </tspan>
<tspan x="10" y="7050">  │ │ │ ├── isarray@1.0.0 </tspan>
<tspan x="10" y="7066">  │ │ │ ├── process-nextick-args@1.0.7 </tspan>
<tspan x="10" y="7082">  │ │ │ ├── string_decoder@0.10.31 </tspan>
<tspan x="10" y="7098">  │ │ │ └── util-deprecate@1.0.2 </tspan>
<tspan x="10" y="7114">  │ │ ├── readdir-scoped-modules@1.0.2 </tspan>
<tspan x="10" y="7130">  │ │ ├── realize-package-specifier@3.0.3 </tspan>
<tspan x="10" y="7146">  │ │ ├─┬ request@2.75.0 </tspan>
<tspan x="10" y="7162">  │ │ │ ├── aws-sign2@0.6.0 </tspan>
<tspan x="10" y="7178">  │ │ │ ├── aws4@1.4.1 </tspan>
<tspan x="10" y="7194">  │ │ │ ├─┬ bl@1.1.2 </tspan>
<tspan x="10" y="7210">  │ │ │ │ └─┬ readable-stream@2.0.6 </tspan>
<tspan x="10" y="7226">  │ │ │ │   ├── core-util-is@1.0.2 </tspan>
<tspan x="10" y="7242">  │ │ │ │   ├── isarray@1.0.0 </tspan>
<tspan x="10" y="7258">  │ │ │ │   ├── process-nextick-args@1.0.7 </tspan>
<tspan x="10" y="7274">  │ │ │ │   ├── string_decoder@0.10.31 </tspan>
<tspan x="10" y="7290">  │ │ │ │   └── util-deprecate@1.0.2 </tspan>
<tspan x="10" y="7306">  │ │ │ ├── caseless@0.11.0 </tspan>
<tspan x="10" y="7322">  │ │ │ ├─┬ combined-stream@1.0.5 </tspan>
<tspan x="10" y="7338">  │ │ │ │ └── delayed-stream@1.0.0 </tspan>
<tspan x="10" y="7354">  │ │ │ ├── extend@3.0.0 </tspan>
<tspan x="10" y="7370">  │ │ │ ├── forever-agent@0.6.1 </tspan>
<tspan x="10" y="7386">  │ │ │ ├─┬ form-data@2.0.0 </tspan>
<tspan x="10" y="7402">  │ │ │ │ └── asynckit@0.4.0 </tspan>
<tspan x="10" y="7418">  │ │ │ ├─┬ har-validator@2.0.6 </tspan>
<tspan x="10" y="7434">  │ │ │ │ ├─┬ chalk@1.1.3 </tspan>
<tspan x="10" y="7450">  │ │ │ │ │ ├── ansi-styles@2.2.1 </tspan>
<tspan x="10" y="7466">  │ │ │ │ │ ├── escape-string-regexp@1.0.5 </tspan>
<tspan x="10" y="7482">  │ │ │ │ │ ├── has-ansi@2.0.0 </tspan>
<tspan x="10" y="7498">  │ │ │ │ │ └── supports-color@2.0.0 </tspan>
<tspan x="10" y="7514">  │ │ │ │ ├─┬ commander@2.9.0 </tspan>
<tspan x="10" y="7530">  │ │ │ │ │ └── graceful-readlink@1.0.1 </tspan>
<tspan x="10" y="7546">  │ │ │ │ ├─┬ is-my-json-valid@2.15.0 </tspan>
<tspan x="10" y="7562">  │ │ │ │ │ ├── generate-function@2.0.0 </tspan>
<tspan x="10" y="7578">  │ │ │ │ │ ├─┬ generate-object-property@1.2.0 </tspan>
<tspan x="10" y="7594">  │ │ │ │ │ │ └── is-property@1.0.2 </tspan>
<tspan x="10" y="7610">  │ │ │ │ │ ├── jsonpointer@4.0.0 </tspan>
<tspan x="10" y="7626">  │ │ │ │ │ └── xtend@4.0.1 </tspan>
<tspan x="10" y="7642">  │ │ │ │ └─┬ pinkie-promise@2.0.1 </tspan>
<tspan x="10" y="7658">  │ │ │ │   └── pinkie@2.0.4 </tspan>
<tspan x="10" y="7674">  │ │ │ ├─┬ hawk@3.1.3 </tspan>
<tspan x="10" y="7690">  │ │ │ │ ├── boom@2.10.1 </tspan>
<tspan x="10" y="7706">  │ │ │ │ ├── cryptiles@2.0.5 </tspan>
<tspan x="10" y="7722">  │ │ │ │ ├── hoek@2.16.3 </tspan>
<tspan x="10" y="7738">  │ │ │ │ └── sntp@1.0.9 </tspan>
<tspan x="10" y="7754">  │ │ │ ├─┬ http-signature@1.1.1 </tspan>
<tspan x="10" y="7770">  │ │ │ │ ├── assert-plus@0.2.0 </tspan>
<tspan x="10" y="7786">  │ │ │ │ ├─┬ jsprim@1.3.1 </tspan>
<tspan x="10" y="7802">  │ │ │ │ │ ├── extsprintf@1.0.2 </tspan>
<tspan x="10" y="7818">  │ │ │ │ │ ├── json-schema@0.2.3 </tspan>
<tspan x="10" y="7834">  │ │ │ │ │ └── verror@1.3.6 </tspan>
<tspan x="10" y="7850">  │ │ │ │ └─┬ sshpk@1.10.1 </tspan>
<tspan x="10" y="7866">  │ │ │ │   ├── asn1@0.2.3 </tspan>
<tspan x="10" y="7882">  │ │ │ │   ├── assert-plus@1.0.0 </tspan>
<tspan x="10" y="7898">  │ │ │ │   ├── bcrypt-pbkdf@1.0.0 </tspan>
<tspan x="10" y="7914">  │ │ │ │   ├── dashdash@1.14.0 </tspan>
<tspan x="10" y="7930">  │ │ │ │   ├── ecc-jsbn@0.1.1 </tspan>
<tspan x="10" y="7946">  │ │ │ │   ├── getpass@0.1.6 </tspan>
<tspan x="10" y="7962">  │ │ │ │   ├── jodid25519@1.0.2 </tspan>
<tspan x="10" y="7978">  │ │ │ │   ├── jsbn@0.1.0 </tspan>
<tspan x="10" y="7994">  │ │ │ │   └── tweetnacl@0.14.3 </tspan>
<tspan x="10" y="8010">  │ │ │ ├── is-typedarray@1.0.0 </tspan>
<tspan x="10" y="8026">  │ │ │ ├── isstream@0.1.2 </tspan>
<tspan x="10" y="8042">  │ │ │ ├── json-stringify-safe@5.0.1 </tspan>
<tspan x="10" y="8058">  │ │ │ ├─┬ mime-types@2.1.12 </tspan>
<tspan x="10" y="8074">  │ │ │ │ └── mime-db@1.24.0 </tspan>
<tspan x="10" y="8090">  │ │ │ ├── node-uuid@1.4.7 </tspan>
<tspan x="10" y="8106">  │ │ │ ├── oauth-sign@0.8.2 </tspan>
<tspan x="10" y="8122">  │ │ │ ├── qs@6.2.1 </tspan>
<tspan x="10" y="8138">  │ │ │ ├── stringstream@0.0.5 </tspan>
<tspan x="10" y="8154">  │ │ │ ├── tough-cookie@2.3.1 </tspan>
<tspan x="10" y="8170">  │ │ │ └── tunnel-agent@0.4.3 </tspan>
<tspan x="10" y="8186">  │ │ ├── retry@0.10.0 </tspan>
<tspan x="10" y="8202">  │ │ ├── rimraf@2.5.4 </tspan>
<tspan x="10" y="8218">  │ │ ├── semver@5.3.0 </tspan>
<tspan x="10" y="8234">  │ │ ├── sha@2.0.1 </tspan>
<tspan x="10" y="8250">  │ │ ├── slide@1.1.6 </tspan>
<tspan x="10" y="8266">  │ │ ├── sorted-object@2.0.1 </tspan>
<tspan x="10" y="8282">  │ │ ├── strip-ansi@3.0.1 </tspan>
<tspan x="10" y="8298">  │ │ ├─┬ tar@2.2.1 </tspan>
<tspan x="10" y="8314">  │ │ │ └── block-stream@0.0.8 </tspan>
<tspan x="10" y="8330">  │ │ ├── text-table@0.2.0 </tspan>
<tspan x="10" y="8346">  │ │ ├── uid-number@0.0.6 </tspan>
<tspan x="10" y="8362">  │ │ ├── umask@1.1.0 </tspan>
<tspan x="10" y="8378">  │ │ ├─┬ unique-filename@1.1.0 </tspan>
<tspan x="10" y="8394">  │ │ │ └── unique-slug@2.0.0 </tspan>
<tspan x="10" y="8410">  │ │ ├── unpipe@1.0.0 </tspan>
<tspan x="10" y="8426">  │ │ ├─┬ validate-npm-package-license@3.0.1 </tspan>
<tspan x="10" y="8442">  │ │ │ ├─┬ spdx-correct@1.0.2 </tspan>
<tspan x="10" y="8458">  │ │ │ │ └── spdx-license-ids@1.2.0 </tspan>
<tspan x="10" y="8474">  │ │ │ └─┬ spdx-expression-parse@1.0.2 </tspan>
<tspan x="10" y="8490">  │ │ │   ├── spdx-exceptions@1.0.4 </tspan>
<tspan x="10" y="8506">  │ │ │   └── spdx-license-ids@1.2.0 </tspan>
<tspan x="10" y="8522">  │ │ ├─┬ validate-npm-package-name@2.2.2 </tspan>
<tspan x="10" y="8538">  │ │ │ └── builtins@0.0.7 </tspan>
<tspan x="10" y="8554">  │ │ ├─┬ which@1.2.11 </tspan>
<tspan x="10" y="8570">  │ │ │ └── isexe@1.1.2 </tspan>
<tspan x="10" y="8586">  │ │ ├── wrappy@1.0.2 </tspan>
<tspan x="10" y="8602">  │ │ └── write-file-atomic@1.2.0 </tspan>
<tspan x="10" y="8618">  │ └── semver@4.3.6 </tspan>
<tspan x="10" y="8634">  ├── server-destroy@1.0.1 </tspan>
<tspan x="10" y="8650">  ├─┬ socket.io@1.7.3 </tspan>
<tspan x="10" y="8666">  │ ├─┬ debug@2.3.3 </tspan>
<tspan x="10" y="8682">  │ │ └── ms@0.7.2 </tspan>
<tspan x="10" y="8698">  │ ├─┬ engine.io@1.8.3 </tspan>
<tspan x="10" y="8714">  │ │ ├── base64id@1.0.0 </tspan>
<tspan x="10" y="8730">  │ │ ├─┬ debug@2.3.3 </tspan>
<tspan x="10" y="8746">  │ │ │ └── ms@0.7.2 </tspan>
<tspan x="10" y="8762">  │ │ ├─┬ engine.io-parser@1.3.2 </tspan>
<tspan x="10" y="8778">  │ │ │ ├── after@0.8.2 </tspan>
<tspan x="10" y="8794">  │ │ │ ├── arraybuffer.slice@0.0.6 </tspan>
<tspan x="10" y="8810">  │ │ │ ├── base64-arraybuffer@0.1.5 </tspan>
<tspan x="10" y="8826">  │ │ │ ├── blob@0.0.4 </tspan>
<tspan x="10" y="8842">  │ │ │ └── wtf-8@1.0.0 </tspan>
<tspan x="10" y="8858">  │ │ └─┬ ws@1.1.2 </tspan>
<tspan x="10" y="8874">  │ │   ├── options@0.0.6 </tspan>
<tspan x="10" y="8890">  │ │   └── ultron@1.0.2 </tspan>
<tspan x="10" y="8906">  │ ├─┬ has-binary@0.1.7 </tspan>
<tspan x="10" y="8922">  │ │ └── isarray@0.0.1 </tspan>
<tspan x="10" y="8938">  │ ├── object-assign@4.1.0 </tspan>
<tspan x="10" y="8954">  │ ├─┬ socket.io-adapter@0.5.0 </tspan>
<tspan x="10" y="8970">  │ │ └─┬ debug@2.3.3 </tspan>
<tspan x="10" y="8986">  │ │   └── ms@0.7.2 </tspan>
<tspan x="10" y="9002">  │ ├─┬ socket.io-client@1.7.3 </tspan>
<tspan x="10" y="9018">  │ │ ├── backo2@1.0.2 </tspan>
<tspan x="10" y="9034">  │ │ ├── component-bind@1.0.0 </tspan>
<tspan x="10" y="9050">  │ │ ├── component-emitter@1.2.1 </tspan>
<tspan x="10" y="9066">  │ │ ├─┬ debug@2.3.3 </tspan>
<tspan x="10" y="9082">  │ │ │ └── ms@0.7.2 </tspan>
<tspan x="10" y="9098">  │ │ ├─┬ engine.io-client@1.8.3 </tspan>
<tspan x="10" y="9114">  │ │ │ ├── component-emitter@1.2.1 </tspan>
<tspan x="10" y="9130">  │ │ │ ├── component-inherit@0.0.3 </tspan>
<tspan x="10" y="9146">  │ │ │ ├─┬ debug@2.3.3 </tspan>
<tspan x="10" y="9162">  │ │ │ │ └── ms@0.7.2 </tspan>
<tspan x="10" y="9178">  │ │ │ ├── has-cors@1.1.0 </tspan>
<tspan x="10" y="9194">  │ │ │ ├── parsejson@0.0.3 </tspan>
<tspan x="10" y="9210">  │ │ │ ├── parseqs@0.0.5 </tspan>
<tspan x="10" y="9226">  │ │ │ ├── xmlhttprequest-ssl@1.5.3 </tspan>
<tspan x="10" y="9242">  │ │ │ └── yeast@0.1.2 </tspan>
<tspan x="10" y="9258">  │ │ ├── indexof@0.0.1 </tspan>
<tspan x="10" y="9274">  │ │ ├── object-component@0.0.3 </tspan>
<tspan x="10" y="9290">  │ │ ├─┬ parseuri@0.0.5 </tspan>
<tspan x="10" y="9306">  │ │ │ └─┬ better-assert@1.0.2 </tspan>
<tspan x="10" y="9322">  │ │ │   └── callsite@1.0.0 </tspan>
<tspan x="10" y="9338">  │ │ └── to-array@0.1.4 </tspan>
<tspan x="10" y="9354">  │ └─┬ socket.io-parser@2.3.1 </tspan>
<tspan x="10" y="9370">  │   ├── component-emitter@1.1.2 </tspan>
<tspan x="10" y="9386">  │   ├── isarray@0.0.1 </tspan>
<tspan x="10" y="9402">  │   └── json3@3.3.2 </tspan>
<tspan x="10" y="9418">  └─┬ yargs@4.8.1 </tspan>
<tspan x="10" y="9434">    ├─┬ cliui@3.2.0 </tspan>
<tspan x="10" y="9450">    │ └── wrap-ansi@2.1.0 </tspan>
<tspan x="10" y="9466">    ├── decamelize@1.2.0 </tspan>
<tspan x="10" y="9482">    ├── get-caller-file@1.0.2 </tspan>
<tspan x="10" y="9498">    ├── lodash.assign@4.2.0 </tspan>
<tspan x="10" y="9514">    ├─┬ os-locale@1.4.0 </tspan>
<tspan x="10" y="9530">    │ └─┬ lcid@1.0.0 </tspan>
<tspan x="10" y="9546">    │   └── invert-kv@1.0.0 </tspan>
<tspan x="10" y="9562">    ├─┬ read-pkg-up@1.0.1 </tspan>
<tspan x="10" y="9578">    │ ├─┬ find-up@1.1.2 </tspan>
<tspan x="10" y="9594">    │ │ ├── path-exists@2.1.0 </tspan>
<tspan x="10" y="9610">    │ │ └─┬ pinkie-promise@2.0.1 </tspan>
<tspan x="10" y="9626">    │ │   └── pinkie@2.0.4 </tspan>
<tspan x="10" y="9642">    │ └─┬ read-pkg@1.1.0 </tspan>
<tspan x="10" y="9658">    │   ├─┬ load-json-file@1.1.0 </tspan>
<tspan x="10" y="9674">    │   │ ├─┬ parse-json@2.2.0 </tspan>
<tspan x="10" y="9690">    │   │ │ └─┬ error-ex@1.3.1 </tspan>
<tspan x="10" y="9706">    │   │ │   └── is-arrayish@0.2.1 </tspan>
<tspan x="10" y="9722">    │   │ ├── pify@2.3.0 </tspan>
<tspan x="10" y="9738">    │   │ └─┬ strip-bom@2.0.0 </tspan>
<tspan x="10" y="9754">    │   │   └── is-utf8@0.2.1 </tspan>
<tspan x="10" y="9770">    │   ├─┬ normalize-package-data@2.3.8 </tspan>
<tspan x="10" y="9786">    │   │ ├── hosted-git-info@2.4.2 </tspan>
<tspan x="10" y="9802">    │   │ ├─┬ is-builtin-module@1.0.0 </tspan>
<tspan x="10" y="9818">    │   │ │ └── builtin-modules@1.1.1 </tspan>
<tspan x="10" y="9834">    │   │ └─┬ validate-npm-package-license@3.0.1 </tspan>
<tspan x="10" y="9850">    │   │   ├─┬ spdx-correct@1.0.2 </tspan>
<tspan x="10" y="9866">    │   │   │ └── spdx-license-ids@1.2.2 </tspan>
<tspan x="10" y="9882">    │   │   └── spdx-expression-parse@1.0.4 </tspan>
<tspan x="10" y="9898">    │   └── path-type@1.1.0 </tspan>
<tspan x="10" y="9914">    ├── require-directory@2.1.1 </tspan>
<tspan x="10" y="9930">    ├── require-main-filename@1.0.1 </tspan>
<tspan x="10" y="9946">    ├── set-blocking@2.0.0 </tspan>
<tspan x="10" y="9962">    ├─┬ string-width@1.0.2 </tspan>
<tspan x="10" y="9978">    │ ├── code-point-at@1.1.0 </tspan>
<tspan x="10" y="9994">    │ └─┬ is-fullwidth-code-point@1.0.0 </tspan>
<tspan x="10" y="10010">    │   └── number-is-nan@1.0.1 </tspan>
<tspan x="10" y="10026">    ├── which-module@1.0.0 </tspan>
<tspan x="10" y="10042">    ├── window-size@0.2.0 </tspan>
<tspan x="10" y="10058">    ├── y18n@3.2.1 </tspan>
<tspan x="10" y="10074">    └─┬ yargs-parser@2.4.1 </tspan>
<tspan x="10" y="10090">      └── camelcase@3.0.0</tspan>
</text>
</svg>
